<?xml version="1.0" encoding="utf-8"?>
<!-- Generator: Adobe Illustrator 25.3.0, SVG Export Plug-In . SVG Version: 6.00 Build 0)  -->
<svg version="1.1" id="Layer_1" xmlns="http://www.w3.org/2000/svg" xmlns:xlink="http://www.w3.org/1999/xlink" x="0px" y="0px"
	viewBox="0 0 468.2 468.2" style="enable-background:new 0 0 468.2 468.2;" xml:space="preserve">
<style type="text/css">
	.st0{fill:#A074B1;}
</style>
<path class="st0" d="M433.2,182h-16.8c-6.3,0-11.9-4-14.1-9.9c-1.6-4.4-3.4-8.8-5.4-13c-2.6-5.7-1.5-12.5,2.9-17l11.9-11.9
	c13.7-13.7,13.7-35.8,0-49.5l-24.2-24.2c-13.7-13.7-35.8-13.7-49.5,0l-11.9,11.9c-4.5,4.5-11.2,5.6-17,2.9c-4.3-2-8.6-3.8-13.1-5.4
	c-5.9-2.2-9.9-7.8-9.9-14.1V35c0-19.3-15.7-35-35-35H217c-19.3,0-35,15.7-35,35v16.7c0,6.3-4,11.9-9.9,14.1
	c-4.4,1.6-8.8,3.4-13.1,5.4c-5.8,2.6-12.5,1.5-17-2.9l-11.8-11.8c-13.7-13.7-35.8-13.7-49.5,0L56.4,80.6
	c-13.7,13.7-13.7,35.8,0,49.5L68.3,142c4.5,4.5,5.6,11.2,2.9,17c-2,4.3-3.8,8.6-5.4,13.1C63.6,178,58,182,51.7,182H35
	c-19.3,0-35,15.7-35,35v34.2c0,19.3,15.7,35,35,35h16.7c6.3,0,11.9,4,14.1,9.9c1.6,4.5,3.4,8.8,5.4,13.1c2.6,5.7,1.5,12.5-2.9,17
	L56.5,338c-13.7,13.7-13.7,35.8,0,49.5l24.2,24.2c13.7,13.7,35.8,13.7,49.5,0l11.8-11.8c4.5-4.5,11.2-5.6,17-2.9
	c4.3,2,8.6,3.8,13.1,5.4c5.9,2.2,9.9,7.8,9.9,14.1v16.7c0,19.3,15.7,35,35,35h34.2c19.3,0,35-15.7,35-35v-16.7
	c0-6.3,4-11.9,9.9-14.1c4.4-1.6,8.8-3.4,13-5.4c5.7-2.7,12.5-1.5,17,2.9l11.9,11.8c13.7,13.7,35.8,13.7,49.5,0l24.2-24.2
	c13.7-13.7,13.7-35.8,0-49.5l-11.8-11.8c-4.5-4.5-5.6-11.2-2.9-17c2-4.3,3.8-8.6,5.4-13.1c2.2-5.9,7.8-9.9,14.1-9.9h16.8
	c19.3,0,35-15.7,35-35V217C468.2,197.6,452.5,182,433.2,182z M234,336.1c-56.4,0-102-45.7-102-102c0-56.4,45.7-102,102-102
	s102,45.7,102,102C336.1,290.4,290.4,336.1,234,336.1z"/>
</svg>
